<?xml version="1.0" encoding="UTF-8"?><svg id="uuid-ae2acbcb-9266-4c37-aeb5-e5e3511015b9" xmlns="http://www.w3.org/2000/svg" viewBox="0 0 40 41"><defs><style>.uuid-d69827cd-a7bc-41b5-b057-00a419b2ea1d{isolation:isolate;}.uuid-5d2db441-5f3d-401e-87b3-101fb6571224{fill:#fff;}.uuid-5d2db441-5f3d-401e-87b3-101fb6571224,.uuid-5bd86cb1-33bd-43e4-a2ef-b076d63e82ff{stroke-width:0px;}.uuid-5bd86cb1-33bd-43e4-a2ef-b076d63e82ff{fill:#cb5728;}</style></defs><g id="uuid-58d9d46e-8638-4d0e-837e-bdf0cd824e26"><path id="uuid-39baa8e0-059a-4374-a35a-1e35e5ba851d" class="uuid-5bd86cb1-33bd-43e4-a2ef-b076d63e82ff" d="M20,0h0c11,0,20,9,20,20v20.4c0,.3-.2.6-.6.6H.6c-.3,0-.6-.2-.6-.6v-20.4C0,9,9,0,20,0Z"/><g id="uuid-ff8ca373-01bc-44fc-a479-78f35777588a" class="uuid-d69827cd-a7bc-41b5-b057-00a419b2ea1d"><g class="uuid-d69827cd-a7bc-41b5-b057-00a419b2ea1d"><path class="uuid-5d2db441-5f3d-401e-87b3-101fb6571224" d="M10.7,26v-1l11.7-15.7h2.7v21.4l.2.2h2.5v1.2h-9v-1.2h2.5l.2-.2V12.7h-.1l-8.8,11.9v.2l-1.8,1.2ZM10.7,26l1.8-1.2h15.9v1.2H10.7Z"/></g></g></g></svg>