<?xml version="1.0" encoding="UTF-8"?><svg id="uuid-2ffe264b-1b33-4c4a-8398-02a82ad0cbc1" xmlns="http://www.w3.org/2000/svg" viewBox="0 0 40 41"><defs><style>.uuid-5c0556b8-c467-4b5a-8011-31779c215165{isolation:isolate;}.uuid-b1157d44-aaaa-4749-8928-d1c4f9b21352{fill:#fff;}.uuid-b1157d44-aaaa-4749-8928-d1c4f9b21352,.uuid-8726303e-04ba-4df3-ba56-c7610027ec4d{stroke-width:0px;}.uuid-8726303e-04ba-4df3-ba56-c7610027ec4d{fill:#cb5728;}</style></defs><g id="uuid-977ab2d3-d353-43da-8e74-25fd1b32cfc5"><path id="uuid-92551119-d06a-422f-93e1-6e6cde1d92ed" class="uuid-8726303e-04ba-4df3-ba56-c7610027ec4d" d="M20,0h0c11,0,20,9,20,20v20.4c0,.3-.2.6-.6.6H.6c-.3,0-.6-.2-.6-.6v-20.4C0,9,9,0,20,0Z"/><g id="uuid-6a82601f-3283-4707-8365-4f2e1478692d" class="uuid-5c0556b8-c467-4b5a-8011-31779c215165"><g class="uuid-5c0556b8-c467-4b5a-8011-31779c215165"><path class="uuid-b1157d44-aaaa-4749-8928-d1c4f9b21352" d="M18.7,32V12.9c-.4.5-1,1-1.7,1.4-.7.5-1.4.9-2.1,1.3l-.6-1.2c.4-.2.9-.5,1.4-.8.6-.4,1.1-.8,1.7-1.3s1.2-1,1.7-1.5c.5-.5,1-1.1,1.3-1.6h1.9v22.8h-3.6ZM14.3,32v-1.2h4.2l.2-.2h3.6l.2.2h4.2v1.2h-12.4Z"/></g></g></g></svg>