<?xml version="1.0" encoding="UTF-8"?><svg id="uuid-dd77c901-627c-4c26-b06e-13cd888c1df9" xmlns="http://www.w3.org/2000/svg" viewBox="0 0 40 41"><defs><style>.uuid-451b4f96-cc98-4fac-82eb-0436c7db3bd3{isolation:isolate;}.uuid-c16060e2-8a38-42d9-b73b-0815ac9b459f{fill:#fff;}.uuid-c16060e2-8a38-42d9-b73b-0815ac9b459f,.uuid-8d5f7502-f2ac-4a7e-b74c-39cbbc3ddfc2{stroke-width:0px;}.uuid-8d5f7502-f2ac-4a7e-b74c-39cbbc3ddfc2{fill:#cb5728;}</style></defs><g id="uuid-8713c46a-5d0d-4206-a2d8-85b132165507"><path id="uuid-0a53141f-b4f1-4a6d-ab2d-37e92647e855" class="uuid-8d5f7502-f2ac-4a7e-b74c-39cbbc3ddfc2" d="M20,0h0c11,0,20,9,20,20v20.4c0,.3-.2.6-.6.6H.6c-.3,0-.6-.2-.6-.6v-20.4C0,9,9,0,20,0Z"/><g id="uuid-a446a709-cbb5-407d-a935-68880c2758d6" class="uuid-451b4f96-cc98-4fac-82eb-0436c7db3bd3"><g class="uuid-451b4f96-cc98-4fac-82eb-0436c7db3bd3"><path class="uuid-c16060e2-8a38-42d9-b73b-0815ac9b459f" d="M19.3,32.3c-1.5,0-2.8-.2-3.9-.7-1.1-.5-2-1.1-2.6-1.9-.6-.8-1-1.6-1-2.5l2.2,1.7c.6.7,1.3,1.2,2.2,1.5.9.3,1.8.5,2.8.5,1.8,0,3.1-.4,4-1.3.9-.8,1.3-2.1,1.3-3.7s-.2-1.9-.7-2.7-1.1-1.4-2.1-1.8c-1-.4-2.2-.7-3.7-.7v-1.1c1.1,0,2.3,0,3.5.3,1.2.2,2.3.5,3.3,1s1.9,1.1,2.5,1.9c.6.8,1,1.8,1,2.9s-.2,2-.7,2.8c-.5.8-1.1,1.5-1.9,2s-1.7,1-2.8,1.2c-1,.3-2.1.4-3.3.4ZM14,29l-2.2-1.7c0-.7.2-1.3.6-1.8.4-.4.9-.6,1.4-.6s1.1.2,1.5.6.6.9.6,1.5-.2,1-.6,1.4c-.4.4-.8.6-1.3.6ZM17.8,20.5v-.8c.7,0,1.4,0,2-.3.6-.2,1.2-.5,1.7-.9.5-.4.9-.9,1.2-1.6.3-.6.4-1.4.4-2.3,0-1.5-.4-2.5-1.2-3.3-.8-.7-1.9-1.1-3.2-1.1s-2,.2-2.9.7c-.8.5-1.4,1.1-1.8,1.8l-2,1.7c0-.8.3-1.7.8-2.5.6-.8,1.4-1.6,2.5-2.1,1.1-.6,2.5-.9,4.1-.9s1.8.1,2.6.3c.9.2,1.6.5,2.4,1,.7.4,1.3,1,1.7,1.7.4.7.6,1.5.6,2.4s-.3,2-.8,2.8c-.5.8-1.2,1.5-2.1,2s-1.9.9-2.9,1.2-2.2.4-3.4.4ZM14.3,16.8c-.6,0-1.1-.2-1.5-.6-.4-.4-.6-1-.6-1.8l2-1.7c.4,0,.8,0,1.1.2.3.2.6.4.8.7.2.3.3.7.3,1.1,0,.6-.2,1-.6,1.4s-.9.6-1.5.6Z"/></g></g></g></svg>