<?xml version="1.0" encoding="UTF-8"?><svg id="uuid-6f85bfc4-9809-4840-a63a-c3b5312a9987" xmlns="http://www.w3.org/2000/svg" viewBox="0 0 40 41"><defs><style>.uuid-e88d9cf1-0d7b-45fd-8f9a-9bc135f6d48d{isolation:isolate;}.uuid-1a14c7da-4dcf-4ddf-9d06-13e767205f7f{fill:#fff;}.uuid-1a14c7da-4dcf-4ddf-9d06-13e767205f7f,.uuid-2348eab9-79cc-4860-adf7-aa930b09c381{stroke-width:0px;}.uuid-2348eab9-79cc-4860-adf7-aa930b09c381{fill:#cb5728;}</style></defs><g id="uuid-469829fc-c32a-4956-bed5-4028ee86bdae"><path id="uuid-912c6f3e-6a59-4c48-8df4-35c926f9856f" class="uuid-2348eab9-79cc-4860-adf7-aa930b09c381" d="M20,0h0c11,0,20,9,20,20v20.4c0,.3-.2.6-.6.6H.6c-.3,0-.6-.2-.6-.6v-20.4C0,9,9,0,20,0Z"/><g id="uuid-5e9107cd-df1c-4a4e-bcde-6b2eb0ed8061" class="uuid-e88d9cf1-0d7b-45fd-8f9a-9bc135f6d48d"><g class="uuid-e88d9cf1-0d7b-45fd-8f9a-9bc135f6d48d"><path class="uuid-1a14c7da-4dcf-4ddf-9d06-13e767205f7f" d="M18.8,32.3c-1.6,0-2.9-.3-4-.8s-1.9-1.2-2.4-2c-.6-.8-.8-1.7-.8-2.6l2.2,1.7c.4.7,1,1.3,1.9,1.7.9.4,1.8.6,2.8.6,1.9,0,3.3-.5,4.1-1.6s1.3-2.5,1.3-4.2-.4-3.3-1.3-4.5c-.9-1.2-2.1-1.8-3.7-1.8s-2,.2-2.9.7c-1,.5-1.8,1.1-2.4,2l-1-.3,1-12.1h13.2v3.1h-12l-.5,6.7c.4-.4,1.1-.7,1.9-1.1.8-.3,1.9-.5,3.3-.5s3.1.3,4.3.9c1.2.6,2.2,1.5,2.8,2.6.7,1.1,1,2.3,1,3.7s-.4,2.8-1.1,3.9-1.8,2.1-3.1,2.7c-1.3.6-2.9,1-4.7,1ZM13.8,28.6l-2.2-1.7c0-.7.2-1.3.6-1.8.4-.4.9-.6,1.5-.6s1.1.2,1.5.6c.4.4.6.9.6,1.5s-.2,1-.6,1.4c-.4.4-.8.6-1.3.6Z"/></g></g></g></svg>