<?xml version="1.0" encoding="UTF-8"?><svg id="uuid-ba794dde-3826-40cc-b12b-f3fd20299cc6" xmlns="http://www.w3.org/2000/svg" viewBox="0 0 40 41"><defs><style>.uuid-e8041be6-4372-4783-a382-f0ddafc79660{isolation:isolate;}.uuid-051f5890-9a09-467a-91fc-9735da01d614{fill:#fff;}.uuid-051f5890-9a09-467a-91fc-9735da01d614,.uuid-40bf50ef-bf37-4793-b62b-aaf85cc71fa8{stroke-width:0px;}.uuid-40bf50ef-bf37-4793-b62b-aaf85cc71fa8{fill:#cb5728;}</style></defs><g id="uuid-8302ddfa-eb8b-42cf-b1e3-2af900924081"><path id="uuid-ea383403-622c-414d-b71e-4111bb637cf8" class="uuid-40bf50ef-bf37-4793-b62b-aaf85cc71fa8" d="M20,0h0c11,0,20,9,20,20v20.4c0,.3-.2.6-.6.6H.6c-.3,0-.6-.2-.6-.6v-20.4C0,9,9,0,20,0Z"/><g id="uuid-86525625-b46e-489f-b25c-ef7740f0996b" class="uuid-e8041be6-4372-4783-a382-f0ddafc79660"><g class="uuid-e8041be6-4372-4783-a382-f0ddafc79660"><path class="uuid-051f5890-9a09-467a-91fc-9735da01d614" d="M27,25.3h1.2l-1.5,6.7h-15c0-1.3.3-2.4.8-3.5.5-1,1.2-1.9,2.1-2.8.9-.8,1.8-1.6,2.7-2.4,1-.8,1.9-1.6,2.7-2.3.9-.8,1.6-1.7,2.1-2.6s.8-2,.8-3.2-.4-2.7-1.2-3.6-1.8-1.4-3.1-1.4-2.1.2-3,.7c-.8.5-1.4,1.2-1.8,2.1l-2,1.7c0-.9.3-1.8.8-2.7.6-.9,1.4-1.6,2.5-2.2,1.1-.6,2.5-.9,4.1-.9s1.7,0,2.6.3c.9.2,1.6.5,2.4,1,.7.5,1.3,1.1,1.7,1.9.4.8.7,1.7.7,2.8s-.2,2.4-.7,3.3c-.5.9-1.1,1.7-1.9,2.4-.8.7-1.7,1.3-2.6,1.9-.9.6-1.9,1.2-2.9,1.8s-1.9,1.3-2.7,2c-.8.7-1.5,1.6-2,2.7h6.3c1.3,0,2.4,0,3.3-.2.9-.2,1.6-.5,2.1-1,.5-.5,1-1.3,1.3-2.3ZM14,17.1c-.6,0-1.1-.2-1.5-.6-.4-.4-.6-1-.6-1.8l2-1.7c.5,0,.8,0,1.1.2.3.2.5.4.7.7s.3.7.3,1.1c0,.6-.2,1-.6,1.4s-.9.6-1.4.6Z"/></g></g></g></svg>