<?xml version="1.0" encoding="UTF-8"?><svg id="uuid-c2783d5a-4854-45cc-96ed-6d457af782d2" xmlns="http://www.w3.org/2000/svg" viewBox="0 0 127 127"><defs><style>.uuid-a574862a-48c1-413b-bb3d-316fa4046e98{fill:#f6f4f0;}.uuid-a574862a-48c1-413b-bb3d-316fa4046e98,.uuid-7b49eff4-1af1-4861-a0eb-e37207669289{stroke:#2d2f33;stroke-miterlimit:10;stroke-width:2px;}.uuid-8d505e7d-c276-483d-9555-38593eafa903{fill:#8c5bad;}.uuid-8d505e7d-c276-483d-9555-38593eafa903,.uuid-7a73f1b1-b413-4681-83b4-c2706c83d1ee,.uuid-309d9327-2b2e-4795-a8a4-c0193652b6ce,.uuid-2c1aa741-6cb1-4289-be82-840547e5075f{stroke-width:0px;}.uuid-7b49eff4-1af1-4861-a0eb-e37207669289{fill:none;}.uuid-7a73f1b1-b413-4681-83b4-c2706c83d1ee{fill:#9986be;}.uuid-309d9327-2b2e-4795-a8a4-c0193652b6ce{fill:#6d418e;}.uuid-2c1aa741-6cb1-4289-be82-840547e5075f{fill:#8a6db0;}</style></defs><g id="uuid-89421a80-6084-4ffa-ba69-c6a1a21433af"><path class="uuid-2c1aa741-6cb1-4289-be82-840547e5075f" d="M111.5,22.8L23.5,110.8S3.1,94.6,1.2,67.8,15.3,7.5,55.2,1.9c34.5-4.9,56.3,20.9,56.3,20.9Z"/><path class="uuid-7a73f1b1-b413-4681-83b4-c2706c83d1ee" d="M22.6,111L110.6,23s16.7,19.6,15.3,41.4-13.6,54.8-53.4,60.4c-34.5,4.9-49.9-13.8-49.9-13.8Z"/><path class="uuid-8d505e7d-c276-483d-9555-38593eafa903" d="M100.9,33.4v64.3h14.8s25.7-33.9-4.3-74.2l-10.6,9.9Z"/><path class="uuid-309d9327-2b2e-4795-a8a4-c0193652b6ce" d="M72.4,18.4h34l5,5-22,22s-4.5-7.6-16.4-5.5l-.7-21.4Z"/><path class="uuid-8d505e7d-c276-483d-9555-38593eafa903" d="M72.2,2v15.6h34.2s-13.7-13.1-34.2-15.6Z"/><path class="uuid-309d9327-2b2e-4795-a8a4-c0193652b6ce" d="M19.6,19.8S4.6,31.5,1.4,56.9h52.9l-19.2-20.3-2.2-4.6-13.3-12.3Z"/><path class="uuid-8d505e7d-c276-483d-9555-38593eafa903" d="M1.4,56.9s-5.6,30.8,21.3,54.1v-54.1s-21.7-.4-21.3,0Z"/><path class="uuid-309d9327-2b2e-4795-a8a4-c0193652b6ce" d="M36.6,97.9h24.7v8.3l2.6,2.6h18.7l3.2-2.4v-8.7h29.1s-15.4,29.4-48.2,27.8c-37.4-1.8-42.7-15.3-42.7-15.3l12.6-12.3Z"/><path class="uuid-a574862a-48c1-413b-bb3d-316fa4046e98" d="M62.8,74.2c6.1,0,9.5-5.5,12-9.5,0,0,0,0,0,0,.5-1,1.2-1.9,1.9-2.7.4,0,.9,0,1.2,0,1.4.1,3.6.3,5.7-.6,2.6-1.1,4.5-3.4,5.6-6.9,1-2.9,1.5-7-1.4-10.6-2.6-3.2-7.2-4.6-12.6-4-1.8.2-3.7-.4-5-1.7l-19-19c-1.5-1.5-4-1.5-5.5,0l-11.4,11.4h0c-1.5,1.5-1.5,4,0,5.5l18.2,18.2s0,0,0,0c1.4,1.4,2.1,3.3,1.9,5.3-.6,3.6-.3,8.6,2.4,11.9,1.4,1.8,3.6,2.8,5.9,2.8s0,0,0,0Z"/><path class="uuid-a574862a-48c1-413b-bb3d-316fa4046e98" d="M89.7,59.5c-1.3-.8-3-.9-4.3,0-1.9,1.1-4,1.7-6.2,1.5-1.4,0-2.8.6-3.5,1.8l-.5.7c-2.3,3.7-5.8,9.2-11.8,9.5,0,0,0,0,0,0-.8,0-1.5.3-2.1.8-.8.6-1.4,1.5-1.5,2.6-.2,1,.1,2.1.7,2.9.8,1.1,1.2,2.4,1.2,3.7v22.1c0,1,.4,2,1.1,2.8.7.7,1.7,1.1,2.8,1.1h16.1c1,0,2-.4,2.8-1.1.7-.7,1.1-1.7,1.1-2.8v-22.1s0,0,0,0c0-1.8.7-3.5,2.1-4.6,3.7-2.6,5.9-6.9,5.9-11.4,0-3-1.5-5.9-4-7.5Z"/><circle class="uuid-7b49eff4-1af1-4861-a0eb-e37207669289" cx="63.5" cy="63.5" r="62.5"/><line class="uuid-7b49eff4-1af1-4861-a0eb-e37207669289" x1="60.8" y1="74" x2="23.6" y2="111.2"/><line class="uuid-7b49eff4-1af1-4861-a0eb-e37207669289" x1="111.6" y1="23.2" x2="89.2" y2="45.6"/><line class="uuid-7b49eff4-1af1-4861-a0eb-e37207669289" x1="72.4" y1="67.6" x2="72.4" y2="2.5"/><line class="uuid-7b49eff4-1af1-4861-a0eb-e37207669289" x1="115.3" y1="98.2" x2="36.8" y2="98.2"/><line class="uuid-7b49eff4-1af1-4861-a0eb-e37207669289" x1="54.3" y1="56.9" x2="1.7" y2="56.9"/><line class="uuid-7b49eff4-1af1-4861-a0eb-e37207669289" x1="33.6" y1="34.1" x2="19.5" y2="20"/><line class="uuid-7b49eff4-1af1-4861-a0eb-e37207669289" x1="101.5" y1="33.1" x2="101.5" y2="97.7"/><line class="uuid-7b49eff4-1af1-4861-a0eb-e37207669289" x1="22.9" y1="111.2" x2="22.9" y2="56.9"/><line class="uuid-7b49eff4-1af1-4861-a0eb-e37207669289" x1="50.1" y1="18.2" x2="107" y2="18.2"/></g></svg>