<?xml version="1.0" encoding="UTF-8"?><svg id="uuid-a78ffe2b-b2cb-4990-a170-5149268550f6" xmlns="http://www.w3.org/2000/svg" viewBox="0 0 126.8 126.5"><defs><style>.uuid-3eb4b5b0-08ad-4efa-9479-1ad47fdb5d8e{fill:#f6f4f0;}.uuid-3eb4b5b0-08ad-4efa-9479-1ad47fdb5d8e,.uuid-75dd305c-84cb-4953-82e0-3605520e8cf0{stroke:#2d2f33;stroke-miterlimit:10;stroke-width:2px;}.uuid-78dcaad4-0191-4ef0-8793-8e370c41c68c{fill:#ffc3c3;}.uuid-78dcaad4-0191-4ef0-8793-8e370c41c68c,.uuid-1f40b637-e767-4c38-adee-cb1253756b06,.uuid-a219a372-b543-4ff8-a783-c84f4ce507c6{stroke-width:0px;}.uuid-75dd305c-84cb-4953-82e0-3605520e8cf0{fill:none;}.uuid-1f40b637-e767-4c38-adee-cb1253756b06{fill:#ff8184;}.uuid-a219a372-b543-4ff8-a783-c84f4ce507c6{fill:#e26666;}</style></defs><g id="uuid-c113cb82-120a-4999-b566-998850ec2913"><path class="uuid-1f40b637-e767-4c38-adee-cb1253756b06" d="M30.6,115.5L114.9,30.4s10.4,39.8,9.7,46.6-28.8,71.5-93.8,39.3"/><path class="uuid-a219a372-b543-4ff8-a783-c84f4ce507c6" d="M56.5,77.8H2.8s4.7,25.1,28,38.5l19.1-19.3,6.5-19.3Z"/><path class="uuid-a219a372-b543-4ff8-a783-c84f4ce507c6" d="M91,55.3l25-25.9s14.3,24.1,7.9,47.7h-51.5l18.6-21.7Z"/><path class="uuid-a219a372-b543-4ff8-a783-c84f4ce507c6" d="M64.5,110.2v15.5s25.1-1,39.1-15.1l-32.5-33.9h-10.6l4,33.5Z"/><path class="uuid-1f40b637-e767-4c38-adee-cb1253756b06" d="M73,2v75H2.8S-9.3,40.4,25.4,14.2c0,0,23.6-17.5,47.6-12.2Z"/><path class="uuid-78dcaad4-0191-4ef0-8793-8e370c41c68c" d="M39.2,58.4v18.3h19v-18s-19.1-.3-19-.3Z"/><path class="uuid-78dcaad4-0191-4ef0-8793-8e370c41c68c" d="M71.7,51.1l11.9,12.2,32.7-33.7S99.7,4.7,71.7,1.7v49.4Z"/><path class="uuid-78dcaad4-0191-4ef0-8793-8e370c41c68c" d="M17.6,21.5S4.2,35.8,1.9,54.1c-.1.3,35.6,0,35.6,0,0,0-1.9-10.6-1.9-13.8l-18-18.9Z"/><ellipse class="uuid-75dd305c-84cb-4953-82e0-3605520e8cf0" cx="63.4" cy="63.3" rx="62.4" ry="62.3"/><path class="uuid-3eb4b5b0-08ad-4efa-9479-1ad47fdb5d8e" d="M48.8,72l8.7,5.9-20.4,15c-1.2.9-1.4,2.5-.6,3.7.2.3.4.5.7.7l24,16.3c1.2.8,2.8.5,3.6-.8.1-.2.3-.5.3-.7l7-22.1c10.6-3.8,16.7-13.5,16.8-25.1v-3.2l5.6,1.1c1.4.3,2.8-.6,3.1-2.1.2-.9,0-1.8-.7-2.4l-4-4.1-2.2-4.5c-2.4-4.9-8.1-6.8-12.9-4.4-1.8.9-3.3,2.5-4.3,4.3l-1,1.8c-2-4.9-5.4-9.1-9.8-12.1-4.5-3.1-7.7-7.7-9-13.1l-2.9-12c-.3-1.4-1.8-2.3-3.2-1.9-.5.1-.9.4-1.2.7l-3,3.1c-13.8,14.1-13.8,37.1,0,51.3,1.6,1.7,3.5,3.2,5.4,4.5h0Z"/><line class="uuid-75dd305c-84cb-4953-82e0-3605520e8cf0" x1="30.9" y1="116.6" x2="44.5" y2="102.5"/><line class="uuid-75dd305c-84cb-4953-82e0-3605520e8cf0" x1="72.7" y1="77.1" x2="72.7" y2="1.8"/><line class="uuid-75dd305c-84cb-4953-82e0-3605520e8cf0" x1="124.6" y1="77.1" x2="2.6" y2="77.1"/><line class="uuid-75dd305c-84cb-4953-82e0-3605520e8cf0" x1="17.3" y1="21.2" x2="33.6" y2="38"/><line class="uuid-75dd305c-84cb-4953-82e0-3605520e8cf0" x1="39.3" y1="6.2" x2="39.3" y2="21.2"/><line class="uuid-75dd305c-84cb-4953-82e0-3605520e8cf0" x1="39.3" y1="62.4" x2="39.3" y2="77.1"/><line class="uuid-75dd305c-84cb-4953-82e0-3605520e8cf0" x1="35.4" y1="54.9" x2="1.6" y2="54.9"/><line class="uuid-75dd305c-84cb-4953-82e0-3605520e8cf0" x1="115.3" y1="29.9" x2="92.8" y2="53.1"/><line class="uuid-75dd305c-84cb-4953-82e0-3605520e8cf0" x1="64.5" y1="113.3" x2="64.5" y2="126"/><line class="uuid-75dd305c-84cb-4953-82e0-3605520e8cf0" x1="80.3" y1="85.9" x2="103.9" y2="110.2"/></g></svg>