<?xml version="1.0" encoding="UTF-8"?><svg id="uuid-a7d2d3e8-fe71-4f38-91ba-2f60f5b693c0" xmlns="http://www.w3.org/2000/svg" viewBox="0 0 125.9 126.9"><defs><style>.uuid-51fab446-548f-460d-9262-80b78e2d14d6{fill:#f6f4f0;}.uuid-51fab446-548f-460d-9262-80b78e2d14d6,.uuid-e7354739-7655-41d0-aece-ac1e1ece44f0{stroke:#2d2f33;stroke-miterlimit:10;stroke-width:2px;}.uuid-0558e6fb-37f8-408e-b280-c09241113d15{fill:#246c7f;}.uuid-0558e6fb-37f8-408e-b280-c09241113d15,.uuid-d6526f95-b95c-4e0a-a0a0-f4bff4a5ec84,.uuid-fbac0fd4-82a4-4e01-a2a5-e67e52d08ebe{stroke-width:0px;}.uuid-e7354739-7655-41d0-aece-ac1e1ece44f0{fill:none;}.uuid-d6526f95-b95c-4e0a-a0a0-f4bff4a5ec84{fill:#45b4d1;}.uuid-fbac0fd4-82a4-4e01-a2a5-e67e52d08ebe{fill:#2b92aa;}</style></defs><g id="uuid-f371de60-8fe7-4a1d-af02-47b84b16e938"><path class="uuid-d6526f95-b95c-4e0a-a0a0-f4bff4a5ec84" d="M62.5,1.5v62.7H.5S1,3.8,62.5,1.5Z"/><path class="uuid-fbac0fd4-82a4-4e01-a2a5-e67e52d08ebe" d="M62.6,64.4v61.6c.1,0,58.3-.3,62.1-61.2l-62.1-.4Z"/><path class="uuid-0558e6fb-37f8-408e-b280-c09241113d15" d="M1.5,64.5h61.1v60.7S7.4,127.5,1.5,64.5Z"/><path class="uuid-0558e6fb-37f8-408e-b280-c09241113d15" d="M62.5,1.5v62.2h62.2s-.3-59.2-62.2-62.2Z"/><path class="uuid-fbac0fd4-82a4-4e01-a2a5-e67e52d08ebe" d="M5.1,85.4h39.8v37.3s-26-6-39.8-37.3Z"/><path class="uuid-fbac0fd4-82a4-4e01-a2a5-e67e52d08ebe" d="M80.7,4.6v42.3h41.8S113.1,13,80.7,4.6Z"/><path class="uuid-d6526f95-b95c-4e0a-a0a0-f4bff4a5ec84" d="M62.5,63.8v40h17.7l13.7,13.8s31.6-18.4,30.9-52.8l-62.2-1Z"/><ellipse class="uuid-e7354739-7655-41d0-aece-ac1e1ece44f0" cx="62.9" cy="63.4" rx="61.9" ry="62.4"/><path class="uuid-51fab446-548f-460d-9262-80b78e2d14d6" d="M80.8,24.5c0-.2-.2-.4-.4-.6,0,0,0,0-.1-.1,0,0,0,0-.1-.1-.3-.2-.6-.3-1-.3h-16.2s-16.2,0-16.2,0c-.4,0-.7.1-1,.3,0,0,0,0-.1.1,0,0-.1,0-.1.1-.2.2-.3.4-.4.6,0,.2-.1.5-.1.7v17.1c0,1,0,6.9,4.9,11l13.1,10.1,13.1-10.1c4.9-4.1,4.9-10,4.9-11v-17.1c0-.3,0-.5-.1-.7ZM76,73.6l-13.1-10.1-13.1,10.1c-4.9,4.1-4.9,10-4.9,11v17.1c0,.3,0,.5.1.7,0,.2.2.4.4.6,0,0,0,0,.1.1,0,0,0,0,.1.1.3.2.6.3,1,.3h16.2s16.2,0,16.2,0c.4,0,.7-.1,1-.3,0,0,0,0,.1-.1,0,0,.1,0,.1-.1.2-.2.3-.4.4-.6,0-.2.1-.5.1-.7v-17.1c0-1,0-6.9-4.9-11Z"/><line class="uuid-e7354739-7655-41d0-aece-ac1e1ece44f0" x1="62.9" y1="1" x2="62.9" y2="126"/><line class="uuid-e7354739-7655-41d0-aece-ac1e1ece44f0" x1="4.3" y1="84.9" x2="63" y2="84.9"/><line class="uuid-e7354739-7655-41d0-aece-ac1e1ece44f0" x1="63" y1="46.7" x2="121.7" y2="46.7"/><line class="uuid-e7354739-7655-41d0-aece-ac1e1ece44f0" x1="44.9" y1="85.4" x2="44.9" y2="122.9"/><line class="uuid-e7354739-7655-41d0-aece-ac1e1ece44f0" x1="1" y1="64.1" x2="125.5" y2="64.1"/><line class="uuid-e7354739-7655-41d0-aece-ac1e1ece44f0" x1="80.9" y1="4" x2="80.9" y2="33.6"/><line class="uuid-e7354739-7655-41d0-aece-ac1e1ece44f0" x1="80" y1="102.9" x2="94.1" y2="117.2"/><line class="uuid-e7354739-7655-41d0-aece-ac1e1ece44f0" x1="47.9" y1="51.4" x2="17.9" y2="21.2"/></g></svg>